<?xml version="1.0" encoding="UTF-8"?>
<!-- Created with Inkscape (http://www.inkscape.org/) -->
<svg width="370mm" height="340mm" version="1.1" viewBox="0 0 370 340" xmlns="http://www.w3.org/2000/svg" xmlns:cc="http://creativecommons.org/ns#" xmlns:dc="http://purl.org/dc/elements/1.1/" xmlns:osb="http://www.openswatchbook.org/uri/2009/osb" xmlns:rdf="http://www.w3.org/1999/02/22-rdf-syntax-ns#">
 <defs>
  <marker id="marker10304" overflow="visible" orient="auto">
   <path transform="matrix(-.8 0 0 -.8 -10 0)" d="m0 0 5-5-17.5 5 17.5 5z" fill-rule="evenodd" stroke="#000" stroke-width="1pt"/>
  </marker>
  <marker id="marker4718" overflow="visible" orient="auto">
   <path transform="matrix(-.8 0 0 -.8 -10 0)" d="m0 0 5-5-17.5 5 17.5 5z" fill-rule="evenodd" stroke="#000" stroke-width="1pt"/>
  </marker>
  <marker id="marker8106" overflow="visible" orient="auto">
   <path transform="matrix(-.8 0 0 -.8 -10 0)" d="m0 0 5-5-17.5 5 17.5 5z" fill-rule="evenodd" stroke="#000" stroke-width="1pt"/>
  </marker>
  <marker id="marker7754" overflow="visible" orient="auto">
   <path transform="matrix(-.8 0 0 -.8 -10 0)" d="m0 0 5-5-17.5 5 17.5 5z" fill-rule="evenodd" stroke="#000" stroke-width="1pt"/>
  </marker>
  <marker id="marker7582" overflow="visible" orient="auto">
   <path transform="matrix(-.8 0 0 -.8 -10 0)" d="m0 0 5-5-17.5 5 17.5 5z" fill-rule="evenodd" stroke="#000" stroke-width="1pt"/>
  </marker>
  <marker id="marker4340" overflow="visible" orient="auto">
   <path transform="matrix(-.8 0 0 -.8 -10 0)" d="m0 0 5-5-17.5 5 17.5 5z" fill-rule="evenodd" stroke="#000" stroke-width="1pt"/>
  </marker>
  <marker id="marker4007" overflow="visible" orient="auto">
   <path transform="matrix(-.8 0 0 -.8 -10 0)" d="m0 0 5-5-17.5 5 17.5 5z" fill-rule="evenodd" stroke="#000" stroke-width="1pt"/>
  </marker>
  <marker id="marker3552-7-2" overflow="visible" orient="auto">
   <path transform="matrix(-.8 0 0 -.8 -10 0)" d="m0 0 5-5-17.5 5 17.5 5z" fill-rule="evenodd" stroke="#000" stroke-width="1pt"/>
  </marker>
  <marker id="marker3552-7-2-9" overflow="visible" orient="auto">
   <path transform="matrix(-.8 0 0 -.8 -10 0)" d="m0 0 5-5-17.5 5 17.5 5z" fill-rule="evenodd" stroke="#000" stroke-width="1pt"/>
  </marker>
  <marker id="marker8106-3" overflow="visible" orient="auto">
   <path transform="matrix(-.8 0 0 -.8 -10 0)" d="m0 0 5-5-17.5 5 17.5 5z" fill-rule="evenodd" stroke="#000" stroke-width="1pt"/>
  </marker>
  <marker id="marker8106-6" overflow="visible" orient="auto">
   <path transform="matrix(-.8 0 0 -.8 -10 0)" d="m0 0 5-5-17.5 5 17.5 5z" fill-rule="evenodd" stroke="#000" stroke-width="1pt"/>
  </marker>
  <marker id="marker4007-3" overflow="visible" orient="auto">
   <path transform="matrix(-.8 0 0 -.8 -10 0)" d="m0 0 5-5-17.5 5 17.5 5z" fill-rule="evenodd" stroke="#000" stroke-width="1pt"/>
  </marker>
  <marker id="marker4718-5" overflow="visible" orient="auto">
   <path transform="matrix(-.8 0 0 -.8 -10 0)" d="m0 0 5-5-17.5 5 17.5 5z" fill-rule="evenodd" stroke="#000" stroke-width="1pt"/>
  </marker>
  <marker id="marker4718-5-3" overflow="visible" orient="auto">
   <path transform="matrix(-.8 0 0 -.8 -10 0)" d="m0 0 5-5-17.5 5 17.5 5z" fill-rule="evenodd" stroke="#000" stroke-width="1pt"/>
  </marker>
  <marker id="marker10304-6" overflow="visible" orient="auto">
   <path transform="matrix(-.8 0 0 -.8 -10 0)" d="m0 0 5-5-17.5 5 17.5 5z" fill-rule="evenodd" stroke="#000" stroke-width="1pt"/>
  </marker>
  <marker id="marker10304-9" overflow="visible" orient="auto">
   <path transform="matrix(-.8 0 0 -.8 -10 0)" d="m0 0 5-5-17.5 5 17.5 5z" fill-rule="evenodd" stroke="#000" stroke-width="1pt"/>
  </marker>
  <marker id="marker10304-4" overflow="visible" orient="auto">
   <path transform="matrix(-.8 0 0 -.8 -10 0)" d="m0 0 5-5-17.5 5 17.5 5z" fill-rule="evenodd" stroke="#000" stroke-width="1pt"/>
  </marker>
  <marker id="marker8106-7" overflow="visible" orient="auto">
   <path transform="matrix(-.8 0 0 -.8 -10 0)" d="m0 0 5-5-17.5 5 17.5 5z" fill-rule="evenodd" stroke="#000" stroke-width="1pt"/>
  </marker>
 </defs>
 <metadata>
  <rdf:RDF>
   <cc:Work rdf:about="">
    <dc:format>image/svg+xml</dc:format>
    <dc:type rdf:resource="http://purl.org/dc/dcmitype/StillImage"/>
    <dc:title/>
   </cc:Work>
  </rdf:RDF>
 </metadata>
 <g transform="translate(0,43)">
  <rect x="27.728" y="15.047" width="45.736" height="21.664" ry="6.3497" fill="#000080" opacity=".323" style="paint-order:stroke fill markers"/>
  <rect x="139.91" y="16.135" width="45.736" height="21.664" ry="6.3497" fill="#000080" opacity=".323" style="paint-order:stroke fill markers"/>
  <ellipse cx="37.701" cy="23.099" rx="2.0512" ry="2.3342" fill="#b3b3b3" opacity=".323" style="paint-order:stroke fill markers"/>
  <text x="27.59593" y="-19.444855" fill="#000000" font-family="sans-serif" font-size="8.4667px" letter-spacing="0px" stroke-width=".26458" word-spacing="0px" style="line-height:1.25" xml:space="preserve"><tspan x="27.59593" y="-19.444855" font-size="8.4667px" stroke-width=".26458">val acc [1]</tspan></text>
  <rect x="237.31" y="99.153" width="66.82" height="12.004" ry="5.1235" fill="#e9afaf" opacity=".5352" style="paint-order:stroke fill markers"/>
  <path d="m271.94 65.013v32.869" fill-rule="evenodd" marker-end="url(#marker4007)" stroke="#000" stroke-width=".56899"/>
  <text x="199.55121" y="59.927891" fill="#000000" font-family="sans-serif" font-size="10.583px" letter-spacing="0px" stroke-width=".26458" word-spacing="0px" style="line-height:1.25" xml:space="preserve"><tspan x="199.55121" y="59.927891" font-size="8.4667px" stroke-width=".26458">Hyperparameter - Configurations</tspan></text>
  <rect x="227.51" y="129.29" width="87.627" height="13.204" ry="5.6359" fill="#e9afaf" opacity=".5352" style="paint-order:stroke fill markers"/>
  <path d="m271.58 111.25v17.51" fill-rule="evenodd" marker-end="url(#marker4340)" stroke="#000" stroke-width=".26092px"/>
  <text x="243.30348" y="107.29739" fill="#000000" font-family="sans-serif" font-size="10.583px" letter-spacing="0px" stroke-width=".26458" word-spacing="0px" style="line-height:1.25" xml:space="preserve"><tspan x="243.30348" y="107.29739" font-size="4.9389px" stroke-width=".26458">Fully Connected Layer</tspan></text>
  <text x="243.60588" y="138.11508" fill="#000000" font-family="sans-serif" font-size="10.583px" letter-spacing="0px" stroke-width=".26458" word-spacing="0px" style="line-height:1.25" xml:space="preserve"><tspan x="243.60588" y="138.11508" font-size="4.9389px" stroke-width=".26458">Fully Connected Layer</tspan></text>
  <g fill="#e9afaf">
   <rect x="46.855" y="93.757" width="120.04" height="14.004" ry="5.9774" opacity=".5352" style="paint-order:stroke fill markers"/>
   <rect x="56.987" y="120.55" width="97.23" height="12.804" ry="5.4651" opacity=".5352" style="paint-order:stroke fill markers"/>
   <rect x="67.881" y="142.56" width="72.822" height="12.404" ry="5.2943" opacity=".5352" style="paint-order:stroke fill markers"/>
  </g>
  <path d="m104.53 107.74 0.0914 11.892" fill="none" marker-end="url(#marker3552-7-2)" stroke="#000" stroke-width=".30847px"/>
  <path d="m105.09 133.17 0.0832 9.0144" fill="none" marker-end="url(#marker3552-7-2-9)" stroke="#000" stroke-width=".27539px"/>
  <g fill="#000000" font-family="sans-serif" font-size="10.583px" letter-spacing="0px" stroke-width=".26458" word-spacing="0px">
   <text x="75.579445" y="102.32206" style="line-height:1.25" xml:space="preserve"><tspan x="75.579445" y="102.32206" font-size="4.9389px" stroke-width=".26458">Fully Connected Layer</tspan></text>
   <text x="78.780426" y="127.52979" style="line-height:1.25" xml:space="preserve"><tspan x="78.780426" y="127.52979" font-size="4.9389px" stroke-width=".26458">Fully Connected Layer</tspan></text>
   <text x="76.379707" y="149.93668" style="line-height:1.25" xml:space="preserve"><tspan x="76.379707" y="149.93668" font-size="4.9389px" stroke-width=".26458">Fully Connected Layer</tspan></text>
  </g>
  <rect x="136.88" y="174.58" width="103.23" height="16.005" ry="7.0021" fill="#f60" opacity=".2834" style="paint-order:stroke fill markers"/>
  <text x="162.96797" y="185.78558" fill="#000000" font-family="sans-serif" font-size="10.583px" letter-spacing="0px" stroke-width=".26458" word-spacing="0px" style="line-height:1.25" xml:space="preserve"><tspan x="162.96797" y="185.78558" font-size="8.4667px" stroke-width=".26458">concatenate</tspan></text>
  <path d="m104.1 154.78 47.603 19.415" fill="none" marker-end="url(#marker7582)" stroke="#000" stroke-width=".44975"/>
  <path d="m271.27 142.55-47.995 31.198" fill="none" marker-end="url(#marker7754)" stroke="#000" stroke-width=".48973"/>
  <g fill="#f60">
   <rect x="136.88" y="201.17" width="103.23" height="16.005" ry="7.0021" opacity=".2834" style="paint-order:stroke fill markers"/>
   <rect x="154.49" y="229" width="69.621" height="14.404" ry="6.3019" opacity=".2834" style="paint-order:stroke fill markers"/>
   <rect x="170.88" y="255.43" width="39.212" height="13.204" ry="5.7768" opacity=".2834" style="paint-order:stroke fill markers"/>
  </g>
  <g fill="#000000" font-family="sans-serif" letter-spacing="0px" word-spacing="0px">
   <text x="162.80624" y="210.75534" font-size="10.583px" stroke-width=".26458" style="line-height:1.25" xml:space="preserve"><tspan x="162.80624" y="210.75534" font-size="4.9389px" stroke-width=".26458">Fully Connected Layer</tspan></text>
   <text x="162.006" y="237.9637" font-size="10.583px" stroke-width=".26458" style="line-height:1.25" xml:space="preserve"><tspan x="162.006" y="237.9637" font-size="4.9389px" stroke-width=".26458">Fully Connected Layer</tspan></text>
   <text transform="scale(.88657 1.1279)" x="194.18993" y="233.49619" font-size="7.812px" stroke-width=".1953" style="line-height:1.25" xml:space="preserve"><tspan x="194.18993" y="233.49619" font-size="3.6456px" stroke-width=".1953">Fully Connected Layer</tspan></text>
  </g>
  <g fill="none" stroke="#000">
   <path d="m190.02 190.65 0.0435 9.9272" marker-end="url(#marker8106)" stroke-width=".35914"/>
   <path d="m190.64 243.38 0.0892 11.385" marker-end="url(#marker8106-3)" stroke-width=".37718"/>
   <path d="m190.06 217.25-0.0716 11.18" marker-end="url(#marker8106-6)" stroke-width=".37828"/>
  </g>
  <path d="m104.07 55.336v38.123" fill-rule="evenodd" marker-end="url(#marker4007-3)" stroke="#000" stroke-width=".67872"/>
  <text x="38.06739" y="29.303596" fill="#000000" font-family="sans-serif" font-size="10.583px" letter-spacing="0px" stroke-width=".26458" word-spacing="0px" style="line-height:1.25" xml:space="preserve"><tspan x="38.06739" y="29.303596" stroke-width=".26458">RNN</tspan></text>
  <rect x="33.895" y="85.253" width="146.44" height="81.625" ry="19.006" fill="#c83737" opacity=".11" style="paint-order:stroke fill markers"/>
  <rect x="212.36" y="91.513" width="125.24" height="68.821" ry="16.025" fill="#c83737" opacity=".11" style="paint-order:stroke fill markers"/>
  <rect x="84.274" y="17.015" width="45.736" height="21.664" ry="6.3497" fill="#000080" opacity=".323" style="paint-order:stroke fill markers"/>
  <g fill="none" stroke="#000" stroke-width=".265">
   <path d="m49.458-17.774 2e-6 32.932" marker-end="url(#marker4718)"/>
   <path d="m107.73-16.032v32.932" marker-end="url(#marker4718-5)"/>
   <path d="m162.92-16.882v32.932" marker-end="url(#marker4718-5-3)"/>
  </g>
  <g fill="#000000" font-family="sans-serif" letter-spacing="0px" stroke-width=".26458" word-spacing="0px">
   <text x="88.100616" y="-19.117226" font-size="8.4667px" style="line-height:1.25" xml:space="preserve"><tspan x="88.100616" y="-19.117226" font-size="8.4667px" stroke-width=".26458">val acc [i]</tspan></text>
   <text x="141.4129" y="-19.416733" font-size="8.4667px" style="line-height:1.25" xml:space="preserve"><tspan x="141.4129" y="-19.416733" font-size="8.4667px" stroke-width=".26458">val acc [n]</tspan></text>
   <text x="151.39159" y="30.055882" font-size="10.583px" style="line-height:1.25" xml:space="preserve"><tspan x="151.39159" y="30.055882" stroke-width=".26458">RNN</tspan></text>
  </g>
  <g fill="none" stroke="#000" stroke-width=".26458px">
   <path d="m73.178 22.676 10.695 0.10589" marker-end="url(#marker10304)"/>
   <path d="m73.186 30.342 10.695 0.1059" marker-end="url(#marker10304-6)"/>
   <path d="m129.63 31.93 10.695 0.1059" marker-end="url(#marker10304-9)"/>
   <path d="m129.63 23.036 10.695 0.1059" marker-end="url(#marker10304-4)"/>
  </g>
  <text x="170.14044" y="286.61209" fill="#000000" font-family="sans-serif" font-size="5.2917px" letter-spacing="0px" stroke-width=".26458" word-spacing="0px" style="line-height:1.25" xml:space="preserve"><tspan x="170.14044" y="286.61209" font-size="8.4667px" stroke-width=".26458">Prediction</tspan></text>
  <text x="87.684265" y="29.774002" fill="#000000" font-family="sans-serif" font-size="10.583px" letter-spacing="0px" stroke-width=".26458" word-spacing="0px" style="line-height:1.25" xml:space="preserve"><tspan x="87.684265" y="29.774002" font-size="42.333px" stroke-width=".26458">...</tspan></text>
  <rect x="19.098" y="-4.8499" width="176.55" height="59.981" ry="12.236" fill="#b3b3b3" opacity=".323" style="paint-order:stroke fill markers"/>
  <path d="m190.34 268.76 0.0607 9.707" fill="none" marker-end="url(#marker8106-7)" stroke="#000" stroke-width=".38019"/>
  <rect x="128.47" y="195.5" width="119.64" height="76.81" ry="19.937" fill="#f95" opacity=".11" style="paint-order:stroke fill markers"/>
 </g>
</svg>
